<svg width="60" height="60" viewBox="0 0 60 60" fill="none" xmlns="http://www.w3.org/2000/svg"><path d="M25.705 19.981a4.48 4.48 0 1 0 8.958.001 4.48 4.48 0 0 0-8.958.001z" fill="#666666"/><path fill-rule="evenodd" clip-rule="evenodd" d="M30 60C46.57 60 60 46.57 60 30S46.57 0 30 0 0 13.432 0 30C0 46.57 13.43 60 30 60zM19.35 19.98C19.35 14 24.2 9.148 30.184 9.148c5.983 0 10.834 4.85 10.834 10.834 0 5.985-4.85 10.835-10.834 10.835-5.984 0-10.834-4.85-10.834-10.834zM41.082 36.39c-.137.11-2.736 2.164-7.074 3.048l6.547 6.488a2.946 2.946 0 0 1-4.162 4.17l-6.356-6.19-5.773 6.15c-.578.6-1.35.9-2.12.9a2.946 2.946 0 0 1-2.12-4.99l6.212-6.494c-4.459-.863-7.165-2.97-7.305-3.082a2.946 2.946 0 0 1 3.686-4.596c.027.021 2.858 2.148 7.419 2.15 4.56-.002 7.333-2.129 7.36-2.15a2.946 2.946 0 0 1 3.685 4.596z" fill="#666666"/></svg>