<svg width="60" height="60" viewBox="0 0 60 60" fill="none" xmlns="http://www.w3.org/2000/svg"><path d="M30 0C13.432 0 0 13.43 0 30s13.432 30 30 30S60 46.57 60 30 46.568 0 30 0zm15.218 33.245c1.398 1.365 2.877 2.65 4.132 4.158.557.666 1.08 1.355 1.48 2.13.57 1.106.055 2.319-.935 2.384l-6.146-.001c-1.588.131-2.851-.509-3.916-1.594-.85-.865-1.64-1.789-2.458-2.683-.334-.368-.687-.714-1.106-.986-.838-.545-1.566-.378-2.046.498-.49.89-.601 1.877-.648 2.868-.067 1.45-.504 1.828-1.958 1.896-3.107.146-6.055-.325-8.795-1.892-2.417-1.381-4.288-3.332-5.919-5.54-3.174-4.304-5.606-9.027-7.79-13.887-.492-1.094-.132-1.68 1.075-1.703 2.005-.038 4.011-.033 6.017-.001.816.012 1.357.48 1.67 1.25 1.084 2.667 2.413 5.204 4.078 7.558.444.627.897 1.252 1.542 1.695.712.488 1.255.327 1.59-.468.215-.505.308-1.045.355-1.587.16-1.854.179-3.708-.098-5.555-.172-1.155-.822-1.902-1.974-2.12-.587-.111-.5-.329-.215-.664.495-.578.96-.937 1.887-.937h6.944c1.094.214 1.34.705 1.488 1.807l.006 7.717c-.013.427.215 1.691.98 1.97.614.203 1.02-.29 1.387-.678 1.665-1.768 2.851-3.854 3.914-6.012.47-.952.874-1.938 1.267-2.925.292-.73.746-1.089 1.57-1.076l6.687.008c.197 0 .397.001.592.035 1.127.193 1.436.678 1.088 1.777-.55 1.727-1.616 3.166-2.658 4.609-1.117 1.544-2.308 3.034-3.414 4.586-1.017 1.417-.936 2.131.326 3.363z" fill="#666666"/></svg>